<svg width="216" height="60" viewBox="0 0 216 60" fill="none" xmlns="http://www.w3.org/2000/svg"><mask id="mask0_1897_1261" style="mask-type:luminance" maskUnits="userSpaceOnUse" x="72" y="6" width="35" height="30"><path d="M106.089 6.39282H100.848V26.5522L85.9258 8.7689L85.6334 8.39598L85.3844 8.10829L85.2652 7.94846L84.6805 7.21326L84.4314 7.01082L83.9766 6.39282H78.7355V35.055H83.9766V14.4481V14.5333L85.0595 15.9185H85.1461L85.85 16.7709L86.0124 16.984L93.5925 26.2219L100.739 34.9271H106.089V6.39282ZM77.8043 6.39282H72.5199V35.055H77.761L77.8043 6.39282Z" fill="white"></path></mask><g mask="url(#mask0_1897_1261)"><path d="M106.078 6.43555H72.5632V35.0551H106.078V6.43555Z" fill="url(#paint0_linear_1897_1261)"></path></g><path d="M74.123 53.0623L73.96 53.105V53.0623H74.123Z" fill="#DF4613"></path><mask id="mask1_1897_1261" style="mask-type:luminance" maskUnits="userSpaceOnUse" x="106" y="5" width="110" height="32"><path d="M196.855 24.6345L200.851 16.9841L204.836 24.6345H196.855ZM193.552 6.393H165.961V11.1345H177.136V35.0551H182.377V11.1771H193.552V6.393ZM165.213 6.393H139.788V35.0551H165.213V30.3136H145.072V23.196H161.315V18.4545H145.072V11.1771H165.213V6.393ZM133.669 6.393L122.949 25.359L118.953 18.2947L118.661 17.8046L117.296 15.3433L116.917 14.6933L116.712 14.2884L115.834 12.8926V12.818L114.752 10.8575L113.214 8.10847L112.229 6.393H106.987V35.0551H112.229V16.1637L115.477 22.2158L117.177 25.4123L117.762 26.4778L118.845 28.5236L121.249 33.0307L121.335 33.1905L122.916 36.0993L123.079 35.8543L123.166 35.7264L123.415 35.2789L123.534 35.0338L123.707 34.7035L123.869 34.4265L124.075 34.0536L124.205 33.8085L124.779 32.743L124.909 32.4553L125.407 31.5603L125.526 31.3578L125.743 30.9423L126.901 28.8113L126.988 28.6514L127.237 28.2359L127.4 27.9162L127.529 27.7031L133.723 16.1744V35.0551H138.954V6.393H133.669ZM215.459 34.0962L215.036 33.2757L214.874 32.9881L212.708 28.8645L211.625 26.7335L200.796 5.9668L199.432 8.64122L194.451 18.2308L193.281 20.4364L191.83 23.1747L188.712 29.1842L188.593 29.4293L188.506 29.5571L188.3 29.962L188.094 30.3776L187.596 31.3578L187.347 31.8053L186.925 32.6258V32.7004L186.308 33.8937L185.81 34.874L185.723 35.0338H191.376L192.123 33.6061L192.285 33.3184L194.202 29.7169L194.288 29.5145L194.364 29.3547H207.359L210.358 35.0338H216L215.459 34.0962Z" fill="white"></path></mask><g mask="url(#mask1_1897_1261)"><path d="M215.967 5.94556H106.987V36.0781H215.967V5.94556Z" fill="url(#paint1_linear_1897_1261)"></path></g><mask id="mask2_1897_1261" style="mask-type:luminance" maskUnits="userSpaceOnUse" x="34" y="0" width="30" height="30"><path d="M34.6194 0L38.2254 3.65469C39.7089 5.16771 41.3765 6.85121 43.2715 8.76912L50.8516 16.4727L63.6187 29.3441H46.8667L41.7122 17.0481C40.4886 14.1073 39.4165 11.5288 38.4636 9.28057L36.2437 3.95303C35.7023 2.48263 35.1284 1.18271 34.6194 0Z" fill="white"></path></mask><g mask="url(#mask2_1897_1261)"><path d="M63.6186 0H34.6302V29.3441H63.6186V0Z" fill="url(#paint2_linear_1897_1261)"></path></g><mask id="mask3_1897_1261" style="mask-type:luminance" maskUnits="userSpaceOnUse" x="34" y="29" width="30" height="30"><path d="M34.6194 58.6881L38.2254 55.0334C39.7089 53.5203 41.3765 51.8368 43.2715 49.9189L50.8516 42.2047L63.6187 29.344H46.8667L41.7122 41.6719C40.4886 44.6127 39.4165 47.1912 38.4636 49.4395L36.2437 54.767C35.6481 56.1841 35.1609 57.484 34.6194 58.6667" fill="white"></path></mask><g mask="url(#mask3_1897_1261)"><path d="M63.3937 29H34.3937V59H63.3937V29Z" fill="url(#paint3_linear_1897_1261)"></path></g><mask id="mask4_1897_1261" style="mask-type:luminance" maskUnits="userSpaceOnUse" x="0" y="0" width="29" height="30"><path d="M28.9559 0.372803L25.3608 4.02749L20.3038 9.14192L12.7237 16.8455C9.25854 20.3617 5.14363 24.5705 0 29.7169H16.7303L21.874 17.389L25.1226 9.61075L27.3425 4.28321C27.9272 2.85543 28.4253 1.55552 28.9559 0.383458" fill="white"></path></mask><g mask="url(#mask4_1897_1261)"><path d="M28.9558 0.372803H-0.0326538V29.7169H28.9558V0.372803Z" fill="url(#paint4_linear_1897_1261)"></path></g><mask id="mask5_1897_1261" style="mask-type:luminance" maskUnits="userSpaceOnUse" x="0" y="29" width="29" height="31"><path d="M28.9559 59.0503L25.3608 55.4063L20.3038 50.2918L12.7237 42.5882C9.25854 39.072 5.14363 34.8633 0 29.7275H16.7303L21.874 42.0555C23.1084 44.9963 24.1805 47.5641 25.1226 49.823L27.3425 55.1505C27.9272 56.5783 28.4253 57.8782 28.9559 59.0503Z" fill="white"></path></mask><g mask="url(#mask5_1897_1261)"><path d="M28.9558 29.7168H-0.0326538V59.0609H28.9558V29.7168Z" fill="url(#paint5_linear_1897_1261)"></path></g><path d="M212.957 46.243H215.968V45.6463H213.629V43.9095H215.621V43.3341H213.629V41.7998H215.914V41.2031H212.957V46.243ZM207.77 45.6463V41.7998H208.42C208.961 41.7613 209.5 41.8838 209.969 42.1514C210.23 42.3312 210.444 42.5703 210.591 42.8486C210.738 43.1268 210.815 43.4359 210.815 43.7497C210.815 44.0635 210.738 44.3726 210.591 44.6508C210.444 44.9291 210.23 45.1682 209.969 45.348C209.507 45.6022 208.981 45.7205 208.453 45.6889L207.77 45.6463ZM207.099 46.243H208.334C209.071 46.2924 209.805 46.1136 210.434 45.7315C210.762 45.4997 211.027 45.1915 211.205 44.8346C211.382 44.4776 211.467 44.0829 211.452 43.6858C211.465 43.2716 211.367 42.8614 211.167 42.4966C210.968 42.1318 210.674 41.8253 210.315 41.608C209.762 41.3092 209.137 41.1654 208.507 41.1925H207.099V46.243ZM202.876 43.2383C203.049 42.8014 203.222 42.3752 203.374 41.9703C203.526 42.3752 203.699 42.8121 203.861 43.2169L204.273 44.2825H202.464L202.876 43.2383ZM200.959 46.243H201.652L202.226 44.8365H204.533L205.107 46.243H205.821L203.71 41.2031H203.071L200.959 46.243ZM196.487 45.6463V41.7998H197.148C197.684 41.7608 198.221 41.8834 198.685 42.1514C198.949 42.3296 199.164 42.5682 199.313 42.8467C199.462 43.1251 199.54 43.4351 199.54 43.7497C199.54 44.0643 199.462 44.3743 199.313 44.6527C199.164 44.9312 198.949 45.1698 198.685 45.348C198.22 45.6036 197.69 45.722 197.158 45.6889L196.487 45.6463ZM195.816 46.243H197.05C197.791 46.2939 198.529 46.1151 199.162 45.7315C199.487 45.4994 199.749 45.1927 199.927 44.838C200.104 44.4834 200.191 44.0915 200.18 43.6964C200.19 43.2814 200.09 42.871 199.888 42.5063C199.687 42.1416 199.392 41.8355 199.032 41.6187C198.48 41.3172 197.854 41.1733 197.223 41.2031H195.816V46.243ZM193.336 46.243H194.007V41.2031H193.336V46.243ZM188.809 46.243H191.896V45.6463H189.47V41.2031H188.799L188.809 46.243ZM184.586 43.2383C184.77 42.8014 184.933 42.3752 185.095 41.9703C185.247 42.3752 185.42 42.8121 185.582 43.2169L186.005 44.2825H184.164L184.586 43.2383ZM182.68 46.243H183.363L183.937 44.8365H186.221L186.795 46.243H187.521L185.355 41.2031H184.716L182.68 46.243ZM177.775 45.5291C177.97 45.7917 178.228 46.0017 178.528 46.1396C178.827 46.2774 179.156 46.3386 179.486 46.3176C179.819 46.3403 180.152 46.28 180.455 46.1421C180.758 46.0043 181.021 45.7934 181.219 45.5291C181.505 44.9964 181.626 44.3922 181.565 43.7923V41.2031H180.915V43.8243C180.953 44.2596 180.887 44.6977 180.72 45.1029C180.599 45.3052 180.422 45.4691 180.208 45.5748C179.995 45.6806 179.756 45.7239 179.518 45.6996C179.28 45.7234 179.039 45.68 178.824 45.5743C178.609 45.4687 178.43 45.3052 178.306 45.1029C178.131 44.6924 178.06 44.2463 178.1 43.803V41.2031H177.428V43.8669C177.377 44.4423 177.498 45.0199 177.775 45.5291ZM171.44 43.6858C171.457 43.3147 171.584 42.9568 171.806 42.6563C172.028 42.3558 172.335 42.126 172.688 41.9955C173.041 41.8649 173.426 41.8393 173.794 41.9218C174.162 42.0043 174.497 42.1914 174.758 42.4597C175.019 42.728 175.194 43.0658 175.262 43.4312C175.33 43.7966 175.287 44.1735 175.139 44.5151C174.991 44.8568 174.744 45.1481 174.429 45.3529C174.114 45.5578 173.745 45.6672 173.368 45.6676C173.108 45.6664 172.85 45.6136 172.611 45.5125C172.372 45.4114 172.156 45.264 171.977 45.0791C171.797 44.8941 171.657 44.6755 171.564 44.4361C171.472 44.1967 171.43 43.9415 171.44 43.6858ZM170.769 43.6858C170.76 44.0223 170.82 44.3572 170.944 44.6709C171.068 44.9846 171.255 45.2708 171.493 45.5128C171.731 45.7548 172.015 45.9478 172.33 46.0805C172.644 46.2131 172.982 46.2829 173.324 46.2856C173.87 46.7326 174.484 47.0922 175.144 47.3511L175.804 46.9675C175.226 46.7668 174.677 46.4947 174.169 46.1577C174.635 46.0176 175.053 45.7528 175.375 45.3929C175.697 45.033 175.911 44.5921 175.994 44.1194C176.076 43.6466 176.023 43.1607 175.842 42.7157C175.66 42.2707 175.356 41.8841 174.964 41.5991C174.572 41.3141 174.107 41.1418 173.621 41.1015C173.136 41.0612 172.648 41.1545 172.213 41.3708C171.778 41.5872 171.413 41.9182 171.158 42.327C170.903 42.7357 170.768 43.2061 170.769 43.6858ZM159.604 45.6143V41.7998H160.232C160.769 41.7621 161.305 41.8847 161.77 42.1514C162.036 42.328 162.254 42.5661 162.404 42.8448C162.555 43.1234 162.633 43.4341 162.633 43.7497C162.633 44.0652 162.555 44.376 162.404 44.6546C162.254 44.9333 162.036 45.1714 161.77 45.348C161.309 45.6033 160.782 45.7217 160.254 45.6889L159.604 45.6143ZM158.933 46.211H160.168C160.908 46.2605 161.646 46.0818 162.279 45.6996C162.604 45.4674 162.867 45.1607 163.044 44.8061C163.222 44.4514 163.308 44.0596 163.297 43.6645C163.308 43.2495 163.207 42.839 163.006 42.4743C162.804 42.1096 162.509 41.8035 162.149 41.5867C161.596 41.2879 160.971 41.1441 160.341 41.1712H158.933V46.211ZM152.663 46.211H155.684V45.6143H153.335V43.9095H155.338V43.3341H153.335V41.7998H155.619V41.2031H152.652L152.663 46.211ZM148.895 46.211H149.566V41.7998H151.288V41.2031H147.238V41.7998H148.949L148.895 46.211ZM142.138 46.211V43.6858C142.138 43.1956 142.138 42.6948 142.138 42.258L143.026 43.43L145.191 46.2323H145.83V41.2031H145.17V43.739C145.17 44.2185 145.17 44.73 145.17 45.1668C144.888 44.7726 144.585 44.3677 144.293 43.9948L142.127 41.1925H141.488V46.243L142.138 46.211ZM136.929 46.211H139.95V45.6143H137.6V43.9095H139.658V43.3341H137.6V41.7998H139.885V41.2031H136.929V46.211ZM130.789 43.7071C130.782 44.0505 130.845 44.3917 130.976 44.7101C131.108 45.0284 131.303 45.317 131.552 45.5584C131.8 45.7998 132.096 45.9887 132.421 46.1138C132.746 46.2388 133.093 46.2973 133.442 46.2856C134.068 46.3009 134.684 46.1381 135.218 45.8168V43.6858H133.399V44.2611H134.547V45.4439C134.21 45.6047 133.839 45.685 133.464 45.6783C132.927 45.6783 132.412 45.4683 132.032 45.0947C131.652 44.721 131.439 44.2142 131.439 43.6858C131.439 43.1573 131.652 42.6505 132.032 42.2769C132.412 41.9032 132.927 41.6933 133.464 41.6933C134.045 41.692 134.609 41.8919 135.056 42.258V41.5548C134.581 41.2771 134.038 41.1334 133.486 41.1392C133.132 41.1261 132.78 41.184 132.451 41.3093C132.121 41.4347 131.821 41.6248 131.569 41.8681C131.316 42.1115 131.117 42.4029 130.983 42.7246C130.849 43.0462 130.783 43.3914 130.789 43.739V43.7071ZM128.623 46.211H129.295V41.2031H128.623V46.211ZM124.097 46.211H127.183V45.6143H124.768V41.2031H124.097V46.211ZM119.538 46.211H122.559V45.6143H120.166V43.9095H122.17V43.3341H120.166V41.7998H122.451V41.2031H119.495L119.538 46.211ZM115.781 46.211H116.452V41.7998H118.163V41.2031H114.059V41.7998H115.781V46.211ZM109.024 46.211V43.6858C109.024 43.1956 109.024 42.6948 109.024 42.258C109.305 42.6522 109.608 43.0465 109.901 43.43L112.066 46.2323H112.705V41.2031H112.056V43.739C112.056 44.2185 112.056 44.73 112.056 45.1668C111.763 44.7726 111.471 44.3677 111.168 43.9948L109.002 41.1925H108.374V46.243L109.024 46.211ZM105.894 46.211H106.565V41.2031H105.894V46.211ZM98.0974 43.6858C98.1143 43.3147 98.2416 42.9568 98.4635 42.6563C98.6853 42.3558 98.992 42.126 99.3453 41.9955C99.6987 41.8649 100.083 41.8393 100.451 41.9218C100.819 42.0043 101.155 42.1914 101.416 42.4597C101.676 42.728 101.852 43.0658 101.919 43.4312C101.987 43.7966 101.944 44.1735 101.796 44.5151C101.648 44.8568 101.401 45.1481 101.086 45.3529C100.771 45.5578 100.402 45.6672 100.025 45.6676C99.7647 45.6664 99.5075 45.6136 99.2685 45.5125C99.0295 45.4114 98.8137 45.264 98.6338 45.0791C98.454 44.8941 98.3138 44.6755 98.2216 44.4361C98.1295 44.1967 98.0872 43.9415 98.0974 43.6858ZM97.426 43.6858C97.4324 44.1901 97.5903 44.6814 97.8797 45.0977C98.1691 45.514 98.5772 45.8368 99.0526 46.0254C99.5281 46.2141 100.05 46.2602 100.552 46.1579C101.054 46.0557 101.514 45.8096 101.874 45.4508C102.234 45.0919 102.478 44.6362 102.576 44.141C102.674 43.6459 102.62 43.1334 102.423 42.668C102.225 42.2025 101.892 41.805 101.465 41.5254C101.039 41.2458 100.538 41.0966 100.025 41.0966C99.6796 41.0922 99.337 41.1564 99.0175 41.2853C98.698 41.4143 98.4083 41.6054 98.1656 41.8471C97.923 42.0889 97.7324 42.3763 97.6053 42.6922C97.4782 43.0082 97.4172 43.3461 97.426 43.6858ZM94.1774 40.3827C94.3517 40.4847 94.5487 40.5432 94.7513 40.5532C94.8656 40.5515 94.978 40.5237 95.0795 40.4719C95.181 40.4201 95.2688 40.3458 95.3361 40.2548V39.7114C95.2727 39.8039 95.1894 39.8815 95.0921 39.9386C94.9947 39.9957 94.8858 40.0309 94.773 40.0417C94.6029 40.0295 94.4388 39.9744 94.2965 39.8819C94.119 39.7889 93.9233 39.7344 93.7226 39.7221C93.6073 39.7182 93.4929 39.7436 93.3905 39.7958C93.288 39.8481 93.201 39.9254 93.1378 40.0204V40.5638C93.2023 40.47 93.2873 40.3916 93.3866 40.3345C93.486 40.2773 93.5971 40.2428 93.7118 40.2335C93.8765 40.2476 94.0358 40.2986 94.1774 40.3827ZM93.7118 43.2383C93.885 42.8014 94.0583 42.3752 94.2099 41.9703L94.6972 43.2169L95.1195 44.2825H93.2786L93.7118 43.2383ZM91.7626 46.243H92.4448L93.0295 44.8365H95.3252L95.8991 46.243H96.6247L94.4589 41.2031H93.8092L91.7626 46.243ZM89.1854 46.243H89.8459V41.7998H91.5568V41.2031H87.4636V41.7998H89.1854V46.243ZM83.1429 45.934C83.6122 46.1832 84.1366 46.3149 84.6698 46.3176C85.6877 46.3176 86.3807 45.7742 86.3807 44.8578C86.3807 43.9415 85.6444 43.6005 84.8972 43.3981C84.15 43.1956 83.6844 43.121 83.6844 42.4924C83.6844 41.8638 84.085 41.7359 84.659 41.7359C85.1882 41.7438 85.7036 41.903 86.1425 42.1941V41.5548C85.694 41.3039 85.1856 41.1751 84.6698 41.1818C83.6735 41.1818 83.0238 41.6933 83.0238 42.5883C83.0238 43.4833 83.7169 43.7923 84.4424 43.9948C85.1679 44.1972 85.7093 44.2931 85.7093 44.9431C85.7093 45.593 85.2762 45.7635 84.6265 45.7635C84.0773 45.7548 83.5442 45.5799 83.0996 45.2627L83.1429 45.934ZM78.7032 46.243H81.7244V45.6463H79.3746V43.9095H81.3779V43.3341H79.3746V41.7998H81.6594V41.2031H78.7032V46.243ZM165.495 43.2383C165.668 42.8014 165.842 42.3752 165.993 41.9703C166.145 42.3752 166.318 42.8121 166.481 43.2169L166.892 44.2825H165.062L165.495 43.2383ZM163.579 46.243H164.261L164.845 44.8365H167.152L167.726 46.243H168.441L166.275 41.2031H165.647L163.579 46.243ZM72.52 43.739C72.5124 44.0824 72.5761 44.4237 72.7072 44.742C72.8383 45.0603 73.0339 45.349 73.2823 45.5904C73.5306 45.8317 73.8264 46.0207 74.1515 46.1457C74.4766 46.2708 74.8242 46.3292 75.173 46.3176C75.8164 46.3316 76.4496 46.1573 76.9922 45.8168V43.6858H75.173V44.2611H76.3209V45.4439C75.9837 45.6047 75.6127 45.685 75.238 45.6783C74.7009 45.6783 74.1859 45.4683 73.8061 45.0947C73.4264 44.721 73.213 44.2142 73.213 43.6858C73.213 43.1573 73.4264 42.6505 73.8061 42.2769C74.1859 41.9032 74.7009 41.6933 75.238 41.6933C75.8324 41.6989 76.405 41.9144 76.8515 42.3006V41.5548C76.3767 41.2771 75.8335 41.1334 75.2813 41.1392C74.9229 41.1171 74.5638 41.1682 74.2265 41.2895C73.8892 41.4108 73.5811 41.5995 73.3217 41.8438C73.0622 42.088 72.857 42.3826 72.7191 42.7088C72.5811 43.035 72.5133 43.3858 72.52 43.739Z" fill="white"></path><defs><linearGradient id="paint0_linear_1897_1261" x1="89.2935" y1="35.087" x2="89.3145" y2="22.9403" gradientUnits="userSpaceOnUse"><stop stop-color="#196448"></stop><stop offset="0.04" stop-color="#1C684A"></stop><stop offset="0.45" stop-color="#378C61"></stop><stop offset="0.79" stop-color="#48A36F"></stop><stop offset="1" stop-color="#4EAB74"></stop></linearGradient><linearGradient id="paint1_linear_1897_1261" x1="161.477" y1="35.9929" x2="161.477" y2="21.1503" gradientUnits="userSpaceOnUse"><stop stop-color="#D52B16"></stop><stop offset="1" stop-color="#DF4613"></stop></linearGradient><linearGradient id="paint2_linear_1897_1261" x1="37.229" y1="13.2762" x2="47.2951" y2="14.4972" gradientUnits="userSpaceOnUse"><stop stop-color="#D52B16"></stop><stop offset="1" stop-color="#DF4613"></stop></linearGradient><linearGradient id="paint3_linear_1897_1261" x1="48.8667" y1="29.1089" x2="48.8995" y2="46.6144" gradientUnits="userSpaceOnUse"><stop stop-color="#D52B16"></stop><stop offset="1" stop-color="#DF4613"></stop></linearGradient><linearGradient id="paint4_linear_1897_1261" x1="14.4995" y1="16.8562" x2="14.2164" y2="2.59953" gradientUnits="userSpaceOnUse"><stop stop-color="#4EAB74"></stop><stop offset="1" stop-color="#196448"></stop></linearGradient><linearGradient id="paint5_linear_1897_1261" x1="14.4886" y1="29.7275" x2="14.4572" y2="44.4847" gradientUnits="userSpaceOnUse"><stop stop-color="#196448"></stop><stop offset="0.04" stop-color="#1C684A"></stop><stop offset="0.45" stop-color="#378C61"></stop><stop offset="0.79" stop-color="#48A36F"></stop><stop offset="1" stop-color="#4EAB74"></stop></linearGradient></defs></svg>